<?xml version="1.0" standalone="no"?>
<!DOCTYPE svg PUBLIC "-//W3C//DTD SVG 20010904//EN"
 "http://www.w3.org/TR/2001/REC-SVG-20010904/DTD/svg10.dtd">
<svg version="1.0" xmlns="http://www.w3.org/2000/svg"
 width="3500.000000pt" height="1037.000000pt" viewBox="0 0 3500.000000 1037.000000"
 preserveAspectRatio="xMidYMid meet">

<g transform="translate(0.000000,1037.000000) scale(0.100000,-0.100000)"
fill="#000000" stroke="none">
<path d="M1085 10133 c-127 -18 -298 -84 -412 -160 -77 -51 -184 -153 -245
-233 -64 -84 -141 -242 -170 -350 l-23 -85 0 -4120 0 -4120 23 -85 c107 -392
426 -679 822 -739 56 -9 4124 -11 16470 -9 l16395 3 80 23 c103 30 250 100
329 156 70 50 196 178 245 250 52 76 118 224 143 322 l23 89 0 4090 c0 3320
-2 4102 -13 4155 -79 394 -354 686 -747 793 l-80 22 -16405 1 c-9023 1 -16418
-1 -16435 -3z m6239 -1389 c3 -9 6 -59 6 -111 0 -361 -170 -765 -429 -1023
-236 -234 -555 -380 -831 -380 l-67 0 -7 63 c-12 123 17 310 75 474 77 216
187 392 349 553 249 249 562 404 886 439 7 0 15 -6 18 -15z m12016 3 c0 -2
-60 -80 -133 -173 l-133 -169 -93 -3 c-110 -3 -110 -25 -6 193 l75 155 145 0
c80 0 145 -2 145 -3z m3088 -909 l2 -908 -115 0 -115 0 0 903 c0 497 3 907 7
911 4 3 54 5 112 4 l106 -3 3 -907z m-10605 891 c200 -29 345 -114 452 -264
85 -120 134 -248 160 -419 39 -264 3 -521 -102 -735 -62 -126 -173 -241 -283
-295 -158 -76 -182 -79 -667 -84 l-433 -3 0 905 0 906 401 0 c230 0 431 -5
472 -11z m1157 -114 l0 -125 -115 0 -115 0 0 125 0 125 115 0 115 0 0 -125z
m945 -360 c98 -21 205 -76 253 -130 39 -44 75 -122 87 -188 l7 -34 -89 -12
c-128 -16 -130 -16 -138 18 -13 59 -60 117 -118 145 -93 46 -257 46 -353 0
-75 -36 -111 -121 -79 -188 25 -53 76 -78 280 -136 338 -95 396 -120 469 -201
59 -65 80 -133 74 -234 -15 -232 -202 -379 -499 -392 -312 -14 -502 101 -574
351 -9 31 -15 59 -12 62 5 6 166 34 193 34 16 0 24 -10 34 -42 30 -104 92
-173 179 -203 100 -34 255 -29 336 12 100 50 144 168 95 249 -29 45 -75 65
-310 129 -280 78 -321 95 -396 169 -78 78 -98 133 -92 250 7 119 55 206 151
269 48 32 148 70 207 80 60 10 231 5 295 -8z m1384 0 c223 -59 365 -239 407
-518 73 -473 -198 -856 -589 -834 -75 4 -99 10 -160 40 -40 20 -91 55 -114 78
l-43 42 0 -321 0 -322 -110 0 -110 0 0 910 0 910 100 0 100 0 0 -80 0 -81 58
59 c59 61 133 105 199 121 60 14 203 12 262 -4z m1376 0 c110 -23 189 -68 276
-154 86 -85 130 -162 158 -275 57 -221 23 -515 -76 -665 -161 -245 -518 -334
-800 -200 -91 43 -207 159 -251 249 -57 118 -67 174 -67 385 1 179 3 195 28
271 46 139 134 252 250 320 55 32 150 68 207 77 60 10 211 5 275 -8z m1537
-14 c88 -34 149 -81 186 -142 67 -110 66 -101 70 -661 l3 -508 -109 0 -109 0
-7 458 c-4 251 -12 478 -17 504 -15 69 -57 121 -126 154 -49 24 -70 29 -133
28 -41 0 -94 -6 -117 -12 -99 -29 -186 -122 -214 -231 -8 -31 -13 -188 -16
-473 l-5 -428 -109 0 -109 0 0 655 0 655 100 0 100 0 0 -91 0 -92 31 39 c58
73 147 134 239 160 72 21 271 12 342 -15z m3260 18 c157 -33 302 -147 377
-300 48 -97 68 -182 77 -326 l7 -103 -493 0 -493 0 6 -63 c16 -169 122 -316
262 -364 68 -23 184 -22 255 2 72 24 156 107 190 187 28 66 20 63 165 45 88
-12 90 -13 87 -37 -8 -58 -77 -175 -143 -241 -110 -110 -240 -159 -429 -159
-353 0 -573 197 -621 555 -14 108 -6 256 21 359 57 222 213 385 420 440 66 18
238 20 312 5z m2821 -24 c134 -55 217 -165 237 -317 5 -40 10 -279 10 -530 l0
-458 -115 0 -115 0 0 450 c0 279 -4 468 -11 499 -27 126 -119 196 -259 195
-144 0 -254 -63 -302 -170 -41 -91 -48 -182 -48 -595 l0 -379 -110 0 -110 0 0
655 0 655 100 0 100 0 0 -85 0 -86 58 59 c58 60 148 114 220 132 20 5 91 8
157 6 104 -2 129 -7 188 -31z m1340 20 c158 -33 256 -116 297 -250 8 -27 14
-183 19 -485 8 -472 6 -450 56 -572 7 -17 -2 -18 -109 -18 l-116 0 -11 28 c-6
15 -16 50 -22 78 l-11 51 -60 -44 c-134 -99 -265 -143 -425 -143 -158 0 -273
41 -351 126 -160 174 -115 454 93 573 77 43 170 67 376 96 101 14 221 35 267
46 l84 21 0 49 c0 168 -69 245 -243 269 -93 13 -210 0 -275 -32 -49 -23 -93
-77 -118 -146 -10 -26 -21 -51 -25 -55 -7 -9 -199 11 -212 22 -9 9 28 125 55
171 66 111 188 188 349 219 73 14 307 12 382 -4z m-12663 -670 l0 -655 -115 0
-115 0 0 655 0 655 115 0 115 0 0 -655z m6140 0 l0 -655 -110 0 -110 0 0 655
0 655 110 0 110 0 0 -655z m518 628 c5 -16 77 -217 160 -448 82 -231 158 -448
167 -483 10 -34 21 -64 25 -67 4 -2 15 22 24 53 10 31 93 263 184 515 l165
457 115 0 c113 0 114 0 108 -22 -3 -13 -113 -306 -245 -653 l-239 -630 -108 0
-108 0 -248 650 c-136 358 -248 651 -248 653 0 1 54 2 119 2 l119 0 10 -27z
m-12230 -1063 c267 -28 511 -115 726 -257 106 -70 301 -255 364 -345 l32 -46
-82 -58 c-46 -32 -135 -110 -198 -173 -229 -229 -365 -488 -415 -790 -14 -83
-16 -140 -12 -285 6 -186 21 -282 69 -426 114 -347 390 -659 734 -830 38 -19
71 -36 73 -37 15 -8 -126 -360 -211 -526 -104 -205 -307 -518 -477 -737 -289
-373 -575 -523 -911 -480 -115 15 -211 44 -395 121 -257 106 -405 136 -623
126 -198 -9 -293 -33 -563 -143 -191 -77 -274 -101 -409 -116 -91 -10 -116 -9
-190 6 -272 56 -518 271 -855 749 -379 537 -632 1190 -722 1862 -25 189 -25
625 1 790 64 417 220 773 454 1039 306 345 736 546 1170 546 188 0 334 -36
664 -166 393 -154 425 -155 745 -32 461 176 608 215 828 217 61 0 152 -4 203
-9z m14882 -1475 c52 -10 133 -28 179 -41 81 -24 219 -78 233 -92 4 -4 -24
-106 -61 -227 -49 -156 -73 -219 -82 -217 -8 2 -36 13 -64 26 -139 64 -293
102 -474 115 -274 21 -478 -35 -598 -164 -153 -166 -146 -427 15 -590 92 -93
210 -161 467 -270 338 -144 510 -243 650 -377 93 -87 153 -170 200 -271 139
-302 98 -718 -97 -976 -134 -177 -342 -314 -580 -380 -319 -89 -790 -78 -1104
25 -93 30 -264 112 -270 129 -4 9 112 444 120 453 2 1 54 -22 117 -52 240
-115 484 -166 739 -153 207 11 364 70 470 178 92 93 130 193 130 341 0 154
-47 257 -170 371 -88 81 -208 147 -452 246 -215 88 -266 111 -378 179 -346
208 -520 476 -520 802 0 259 75 451 242 626 171 178 385 284 663 329 123 20
492 14 625 -10z m-8931 -1738 c304 -941 556 -1718 558 -1724 4 -10 -58 -13
-290 -13 l-295 0 -16 48 c-8 26 -48 153 -90 282 -41 129 -106 335 -146 458
l-71 222 -562 0 -562 0 -125 -413 c-68 -226 -137 -454 -152 -505 l-29 -92
-284 0 c-157 0 -285 3 -285 6 0 8 1101 3427 1107 3437 2 4 158 7 346 7 l342 0
554 -1713z m10701 1063 l0 -310 305 0 305 0 0 -210 0 -210 -305 0 -305 0 0
-629 c0 -395 4 -658 11 -707 21 -150 75 -248 164 -293 42 -22 65 -26 160 -29
62 -2 138 1 170 7 32 6 60 9 62 8 1 -2 6 -96 9 -209 5 -146 4 -207 -4 -212
-34 -21 -202 -47 -337 -52 -188 -8 -292 9 -412 67 -198 95 -307 265 -347 540
-13 89 -16 225 -16 808 l0 701 -182 2 -183 3 -3 208 -2 207 185 0 185 0 0 228
0 229 263 80 c144 44 265 81 270 82 4 0 7 -138 7 -309z m-8079 -288 c326 -87
583 -338 708 -695 63 -180 75 -266 75 -537 1 -189 -3 -265 -16 -335 -82 -433
-306 -748 -644 -907 -264 -123 -638 -124 -880 0 -73 37 -164 114 -219 184
l-55 70 0 -651 0 -651 -274 0 -274 0 -6 1648 c-4 906 -9 1693 -12 1750 l-5
102 240 0 241 0 4 -22 c3 -13 10 -101 17 -195 7 -95 15 -173 19 -173 4 0 22
21 40 48 146 205 360 337 614 378 114 19 329 11 427 -14z m2859 0 c185 -50
313 -125 450 -269 93 -96 145 -168 203 -283 205 -407 187 -1071 -40 -1465 -60
-105 -98 -154 -191 -248 -84 -85 -202 -170 -297 -212 -249 -110 -575 -120
-817 -24 -108 42 -237 147 -315 254 l-22 30 -1 -652 0 -653 -274 0 -275 0 -5
1678 c-3 922 -8 1710 -12 1750 l-6 72 245 0 244 0 13 -182 c7 -101 16 -189 20
-196 5 -10 23 8 58 55 151 202 354 322 617 363 97 15 318 5 405 -18z m7650 3
c226 -46 412 -145 570 -304 241 -243 353 -542 352 -946 0 -249 -35 -431 -122
-627 -113 -259 -344 -490 -594 -595 -227 -96 -556 -124 -811 -69 -454 98 -781
451 -882 951 -25 127 -25 481 0 609 54 266 159 475 328 651 45 47 112 108 149
135 137 101 348 183 542 209 98 13 375 5 468 -14z m2689 19 l31 -6 0 -262 0
-262 -67 8 c-329 43 -577 -130 -665 -464 -21 -81 -22 -99 -25 -815 l-4 -733
-273 0 -274 0 -6 1188 c-3 653 -9 1213 -12 1245 l-6 57 240 0 c221 0 241 -1
246 -17 2 -10 8 -116 11 -236 4 -119 11 -219 15 -222 4 -2 20 25 35 62 65 152
206 314 330 380 58 30 163 67 215 76 42 7 175 7 209 1z m1762 -22 c361 -97
605 -366 704 -775 43 -175 55 -426 29 -589 l-7 -38 -830 0 -830 0 7 -72 c24
-269 151 -466 366 -571 52 -26 122 -54 155 -62 202 -53 567 -29 823 52 48 15
91 27 97 28 10 0 96 -365 89 -376 -7 -13 -167 -66 -274 -92 -159 -40 -325 -58
-525 -59 -251 -1 -397 23 -578 95 -262 103 -493 339 -598 610 -62 161 -80 270
-86 502 -5 183 -3 226 16 334 93 548 440 934 922 1026 113 21 420 14 520 -13z"/>
<path d="M11190 7834 l0 -696 278 5 c301 6 354 13 451 59 183 87 281 313 281
643 -1 277 -54 432 -194 563 -111 104 -197 122 -583 122 l-233 0 0 -696z"/>
<path d="M15075 8087 c-138 -46 -235 -165 -270 -332 -32 -150 -13 -370 41
-480 33 -66 106 -138 172 -168 72 -32 180 -30 253 6 161 78 239 260 226 527
-8 169 -49 282 -130 364 -78 77 -202 112 -292 83z"/>
<path d="M16447 8079 c-96 -22 -199 -106 -246 -197 -35 -69 -53 -168 -54 -292
0 -190 34 -300 122 -393 87 -92 203 -131 322 -109 203 38 308 186 325 458 16
276 -95 478 -293 529 -63 16 -118 18 -176 4z"/>
<path d="M21261 8080 c-100 -21 -189 -86 -235 -170 -29 -53 -56 -138 -56 -177
l0 -23 366 0 366 0 -6 38 c-27 155 -94 256 -205 306 -67 30 -160 40 -230 26z"/>
<path d="M25640 7559 c-36 -11 -144 -33 -240 -50 -196 -35 -257 -56 -300 -105
-27 -31 -50 -88 -50 -124 0 -76 64 -160 143 -186 115 -39 292 -11 390 61 98
73 134 153 144 323 7 116 13 110 -87 81z"/>
<path d="M12356 4875 c-52 -209 -127 -467 -222 -767 -79 -248 -144 -455 -144
-460 0 -4 207 -8 461 -8 365 0 460 3 456 13 -2 6 -68 210 -147 452 -149 462
-199 628 -271 912 -24 95 -46 173 -49 173 -3 0 -40 -142 -84 -315z"/>
<path d="M15421 4280 c-105 -28 -195 -82 -276 -164 -80 -82 -122 -154 -162
-281 l-28 -90 0 -325 c0 -313 1 -328 23 -400 36 -115 79 -187 162 -271 112
-114 211 -157 375 -166 194 -10 331 40 456 167 155 156 239 403 239 700 0 346
-131 646 -335 765 -135 80 -309 104 -454 65z"/>
<path d="M18304 4285 c-79 -17 -159 -55 -233 -111 -111 -83 -189 -207 -233
-365 -22 -79 -23 -101 -23 -389 0 -349 6 -386 77 -524 50 -95 154 -205 235
-249 159 -85 388 -88 562 -7 99 47 213 167 274 290 83 168 113 335 104 580 -8
233 -57 398 -162 545 -137 193 -367 281 -601 230z"/>
<path d="M26124 4329 c-205 -19 -355 -132 -464 -349 -81 -162 -114 -317 -114
-535 0 -82 6 -184 13 -225 50 -280 185 -500 368 -598 156 -83 370 -82 527 1
182 97 329 344 371 627 37 242 5 505 -84 696 -136 290 -330 410 -617 383z"/>
<path d="M30478 4345 c-235 -59 -417 -292 -463 -592 l-7 -43 578 0 577 0 -6
83 c-21 265 -153 469 -349 537 -82 28 -248 36 -330 15z"/>
</g>
</svg>
